<mxfile host="65bd71144e">
    <diagram name="Playbook Full Overview" id="playbookFullOverview">
        <mxGraphModel dx="1778" dy="970" grid="1" gridSize="10" guides="1" tooltips="1" connect="1" arrows="1" fold="1" page="1" pageScale="1" pageWidth="1600" pageHeight="1200" math="0" shadow="0">
            <root>
                <mxCell id="0"/>
                <mxCell id="1" parent="0"/>
                <mxCell id="stepCore" value="Test Types" style="swimlane;horizontal=0;startSize=30;fillColor=#F5F5F5;strokeColor=#9E9E9E;" parent="1" vertex="1">
                    <mxGeometry x="30" y="20" width="300" height="640" as="geometry"/>
                </mxCell>
                <mxCell id="unit" value="Unit Test&#xa; - Test single method/class in isolation (mocks, no real db/api)&#xa; - Ensures local logic, edges" style="ellipse;whiteSpace=wrap;html=1;fillColor=#BBDEFB;strokeColor=#1976d2;" parent="stepCore" vertex="1">
                    <mxGeometry x="30" y="80" width="240" height="70" as="geometry"/>
                </mxCell>
                <mxCell id="integration" value="Integration Test&#xa; - Validates cooperation of multiple layers/modules&#xa; - Real DB, API, or with Testcontainers" style="ellipse;whiteSpace=wrap;html=1;fillColor=#B2DFDB;strokeColor=#009688;" parent="stepCore" vertex="1">
                    <mxGeometry x="30" y="190" width="240" height="70" as="geometry"/>
                </mxCell>
                <mxCell id="api" value="API Test&#xa; - Requests/validates API endpoints (http, contract, auth, input validation)&#xa; - Includes positive/negative/security" style="ellipse;whiteSpace=wrap;html=1;fillColor=#FFE082;strokeColor=#FFB300;" parent="stepCore" vertex="1">
                    <mxGeometry x="30" y="300" width="240" height="70" as="geometry"/>
                </mxCell>
                <mxCell id="regression" value="Regression Test&#xa; - Periodic runs of all core tests to catch breakages&#xa; - Links back to workflows, past bugs, coverage gaps" style="ellipse;whiteSpace=wrap;html=1;fillColor=#FFCCBC;strokeColor=#D84315;" parent="stepCore" vertex="1">
                    <mxGeometry x="30" y="410" width="240" height="70" as="geometry"/>
                </mxCell>
                <mxCell id="qa" value="Validation/QA&#xa; - All artifacts validated, requirements traced, compliance checked" style="ellipse;whiteSpace=wrap;html=1;fillColor=#C8E6C9;strokeColor=#388E3C;" parent="stepCore" vertex="1">
                    <mxGeometry x="30" y="520" width="240" height="70" as="geometry"/>
                </mxCell>
                <mxCell id="stepsLane" value="Playbook Steps &amp; Key Templates" style="swimlane;startSize=30;fillColor=#F5F5F5;strokeColor=#BDBDBD;" parent="1" vertex="1">
                    <mxGeometry x="350" y="20" width="1200" height="1130" as="geometry"/>
                </mxCell>
                <mxCell id="step1" value="Step 1: Context &amp; Docs" style="rectangle;rounded=1;whiteSpace=wrap;html=1;fillColor=#E3F2FD;strokeColor=#1976d2;" parent="stepsLane" vertex="1">
                    <mxGeometry x="40" y="20" width="260" height="150" as="geometry"/>
                </mxCell>
                <mxCell id="templ_projectinfo" value="ProjectInfoTemplate.md" style="rectangle;rounded=1;whiteSpace=wrap;html=1;fillColor=#BBDEFB;" parent="step1" vertex="1">
                    <mxGeometry x="20" y="30" width="160" height="30" as="geometry"/>
                </mxCell>
                <mxCell id="templ_workflow" value="FunctionalWorkflowTemplate.md" style="rectangle;rounded=1;whiteSpace=wrap;html=1;fillColor=#E1BEE7;" parent="step1" vertex="1">
                    <mxGeometry x="20" y="65" width="160" height="30" as="geometry"/>
                </mxCell>
                <mxCell id="templ_arch" value="ArchitectureDiagramTemplate.md" style="rectangle;rounded=1;whiteSpace=wrap;html=1;fillColor=#C5CAE9;" parent="step1" vertex="1">
                    <mxGeometry x="20" y="100" width="180" height="30" as="geometry"/>
                </mxCell>
                <mxCell id="templ_data" value="DataModelTemplate.md" style="rectangle;rounded=1;whiteSpace=wrap;html=1;fillColor=#B3E5FC;" parent="step1" vertex="1">
                    <mxGeometry x="190" y="30" width="150" height="30" as="geometry"/>
                </mxCell>
                <mxCell id="templ_external" value="ExternalDependencyTemplate.md" style="rectangle;rounded=1;whiteSpace=wrap;html=1;fillColor=#D1C4E9;" parent="step1" vertex="1">
                    <mxGeometry x="190" y="65" width="150" height="30" as="geometry"/>
                </mxCell>
                <mxCell id="templ_teamgoals" value="TeamGoalsTemplate.md" style="rectangle;rounded=1;whiteSpace=wrap;html=1;fillColor=#FFECB3;" parent="step1" vertex="1">
                    <mxGeometry x="190" y="100" width="150" height="30" as="geometry"/>
                </mxCell>
                <mxCell id="step2" value="Step 2: Environment &amp; Tool Setup" style="rectangle;rounded=1;whiteSpace=wrap;html=1;fillColor=#F1F8E9;strokeColor=#8BC34A;" parent="stepsLane" vertex="1">
                    <mxGeometry x="390" y="190" width="220" height="110" as="geometry"/>
                </mxCell>
                <mxCell id="templ_envsetup" value="environment-setup.md" style="rectangle;rounded=1;whiteSpace=wrap;html=1;fillColor=#DCEDC8;" parent="step2" vertex="1">
                    <mxGeometry x="18" y="18" width="180" height="30" as="geometry"/>
                </mxCell>
                <mxCell id="templ_testdep" value="test-dependencies.md" style="rectangle;rounded=1;whiteSpace=wrap;html=1;fillColor=#FFECB3;" parent="step2" vertex="1">
                    <mxGeometry x="18" y="53" width="180" height="30" as="geometry"/>
                </mxCell>
                <mxCell id="step3" value="Step 3: Unit Tests" style="rectangle;rounded=1;whiteSpace=wrap;html=1;fillColor=#FFF3E0;strokeColor=#FFA726;" parent="stepsLane" vertex="1">
                    <mxGeometry x="650" y="55" width="220" height="135" as="geometry"/>
                </mxCell>
                <mxCell id="templ_unittargets" value="UnitTestTargetsTemplate.md" style="rectangle;rounded=1;whiteSpace=wrap;html=1;fillColor=#FFE0B2;" parent="step3" vertex="1">
                    <mxGeometry x="18" y="18" width="180" height="30" as="geometry"/>
                </mxCell>
                <mxCell id="templ_unittest" value="unit-test-coverage.md" style="rectangle;rounded=1;whiteSpace=wrap;html=1;fillColor=#FFF9C4;" parent="step3" vertex="1">
                    <mxGeometry x="18" y="53" width="180" height="30" as="geometry"/>
                </mxCell>
                <mxCell id="step4" value="Step 4: Integration Tests" style="rectangle;rounded=1;whiteSpace=wrap;html=1;fillColor=#E1F5FE;strokeColor=#00BCD4;" parent="stepsLane" vertex="1">
                    <mxGeometry x="910" y="210" width="250" height="110" as="geometry"/>
                </mxCell>
                <mxCell id="templ_inttargets" value="IntegrationTestTargetsTemplate.md" style="rectangle;rounded=1;whiteSpace=wrap;html=1;fillColor=#B3E5FC;" parent="step4" vertex="1">
                    <mxGeometry x="18" y="18" width="180" height="30" as="geometry"/>
                </mxCell>
                <mxCell id="templ_intcov" value="integration-test-coverage.md" style="rectangle;rounded=1;whiteSpace=wrap;html=1;fillColor=#C8E6C9;" parent="step4" vertex="1">
                    <mxGeometry x="18" y="53" width="180" height="30" as="geometry"/>
                </mxCell>
                <mxCell id="step5" value="Step 5: API Tests" style="rectangle;rounded=1;whiteSpace=wrap;html=1;fillColor=#FFFDE7;strokeColor=#FFD600;" parent="stepsLane" vertex="1">
                    <mxGeometry x="1220" y="80" width="220" height="135" as="geometry"/>
                </mxCell>
                <mxCell id="templ_apitargets" value="API Test Targets Template.md" style="rectangle;rounded=1;whiteSpace=wrap;html=1;fillColor=#FFF9C4;" parent="step5" vertex="1">
                    <mxGeometry x="18" y="18" width="180" height="30" as="geometry"/>
                </mxCell>
                <mxCell id="templ_apicov" value="api-test-coverage.md" style="rectangle;rounded=1;whiteSpace=wrap;html=1;fillColor=#FFECB3;" parent="step5" vertex="1">
                    <mxGeometry x="18" y="53" width="180" height="30" as="geometry"/>
                </mxCell>
                <mxCell id="step6" value="Step 6: Regression Tests" style="rectangle;rounded=1;whiteSpace=wrap;html=1;fillColor=#FFF3E0;strokeColor=#F44336;" parent="stepsLane" vertex="1">
                    <mxGeometry x="810" y="410" width="320" height="180" as="geometry"/>
                </mxCell>
                <mxCell id="templ_regression" value="RegressionTestSuite.md" style="rectangle;rounded=1;whiteSpace=wrap;html=1;fillColor=#FFAB91;" parent="step6" vertex="1">
                    <mxGeometry x="18" y="18" width="230" height="30" as="geometry"/>
                </mxCell>
                <mxCell id="templ_regscenario" value="Regression Test Scenario Template.md" style="rectangle;rounded=1;whiteSpace=wrap;html=1;fillColor=#FFCCBC;" parent="step6" vertex="1">
                    <mxGeometry x="18" y="58" width="230" height="30" as="geometry"/>
                </mxCell>
                <mxCell id="step7" value="Step 7: Validation &amp; QA" style="rectangle;rounded=1;whiteSpace=wrap;html=1;fillColor=#E0F7FA;strokeColor=#009688;" parent="stepsLane" vertex="1">
                    <mxGeometry x="590" y="640" width="350" height="100" as="geometry"/>
                </mxCell>
                <mxCell id="step8" value="Step 8: Metrics/CI/CD/Continuous Improvement" style="rectangle;rounded=1;whiteSpace=wrap;html=1;fillColor=#E8F5E9;strokeColor=#388E3C;" parent="stepsLane" vertex="1">
                    <mxGeometry x="970" y="640" width="375" height="100" as="geometry"/>
                </mxCell>
                <mxCell id="flow1" style="edgeStyle=orthogonalEdgeStyle;strokeColor=#1976d2;html=1;" parent="stepsLane" source="step1" target="step2" edge="1">
                    <mxGeometry relative="1" as="geometry"/>
                </mxCell>
                <mxCell id="flow2" style="edgeStyle=orthogonalEdgeStyle;strokeColor=#8BC34A;html=1;" parent="stepsLane" source="step2" target="step3" edge="1">
                    <mxGeometry relative="1" as="geometry"/>
                </mxCell>
                <mxCell id="flow3" style="edgeStyle=orthogonalEdgeStyle;strokeColor=#FFA726;html=1;" parent="stepsLane" source="step3" target="step4" edge="1">
                    <mxGeometry relative="1" as="geometry"/>
                </mxCell>
                <mxCell id="flow4" style="edgeStyle=orthogonalEdgeStyle;strokeColor=#00BCD4;html=1;" parent="stepsLane" source="step4" target="step5" edge="1">
                    <mxGeometry relative="1" as="geometry"/>
                </mxCell>
                <mxCell id="flow5" style="edgeStyle=orthogonalEdgeStyle;strokeColor=#F44336;html=1;" parent="stepsLane" source="step3" target="step6" edge="1">
                    <mxGeometry relative="1" as="geometry"/>
                </mxCell>
                <mxCell id="flow6" style="edgeStyle=orthogonalEdgeStyle;strokeColor=#F44336;html=1;" parent="stepsLane" source="step4" target="step6" edge="1">
                    <mxGeometry relative="1" as="geometry"/>
                </mxCell>
                <mxCell id="flow7" style="edgeStyle=orthogonalEdgeStyle;strokeColor=#F44336;html=1;" parent="stepsLane" source="step5" target="step6" edge="1">
                    <mxGeometry relative="1" as="geometry"/>
                </mxCell>
                <mxCell id="flow8" style="edgeStyle=orthogonalEdgeStyle;strokeColor=#388E3C;html=1;" parent="stepsLane" source="step6" target="step7" edge="1">
                    <mxGeometry relative="1" as="geometry"/>
                </mxCell>
                <mxCell id="flow9" style="edgeStyle=orthogonalEdgeStyle;strokeColor=#388E3C;html=1;" parent="stepsLane" source="step7" target="step8" edge="1">
                    <mxGeometry relative="1" as="geometry"/>
                </mxCell>
                <mxCell id="arrow_unit" value="" style="edgeStyle=elbowEdgeStyle;endArrow=classic;html=1;strokeColor=#1976d2;" parent="stepsLane" source="templ_workflow" target="templ_unittargets" edge="1">
                    <mxGeometry relative="1" as="geometry"/>
                </mxCell>
                <mxCell id="arrow_unit_coverage" value="" style="edgeStyle=elbowEdgeStyle;endArrow=classic;html=1;strokeColor=#FFA726;" parent="stepsLane" source="templ_unittargets" target="templ_unittest" edge="1">
                    <mxGeometry relative="1" as="geometry"/>
                </mxCell>
                <mxCell id="arrow_int_coverage" value="" style="edgeStyle=elbowEdgeStyle;endArrow=classic;html=1;strokeColor=#00BCD4;" parent="stepsLane" source="templ_inttargets" target="templ_intcov" edge="1">
                    <mxGeometry relative="1" as="geometry"/>
                </mxCell>
                <mxCell id="arrow_api_coverage" value="" style="edgeStyle=elbowEdgeStyle;endArrow=classic;html=1;strokeColor=#FFB300;" parent="stepsLane" source="templ_apitargets" target="templ_apicov" edge="1">
                    <mxGeometry relative="1" as="geometry"/>
                </mxCell>
                <mxCell id="arrow_reg_tracking1" value="" style="edgeStyle=elbowEdgeStyle;endArrow=classic;html=1;strokeColor=#F44336;" parent="stepsLane" source="templ_unittest" target="templ_regression" edge="1">
                    <mxGeometry relative="1" as="geometry"/>
                </mxCell>
                <mxCell id="arrow_reg_tracking2" value="" style="edgeStyle=elbowEdgeStyle;endArrow=classic;html=1;strokeColor=#F44336;" parent="stepsLane" source="templ_intcov" target="templ_regression" edge="1">
                    <mxGeometry relative="1" as="geometry"/>
                </mxCell>
                <mxCell id="arrow_reg_tracking3" value="" style="edgeStyle=elbowEdgeStyle;endArrow=classic;html=1;strokeColor=#F44336;" parent="stepsLane" source="templ_apicov" target="templ_regression" edge="1">
                    <mxGeometry relative="1" as="geometry"/>
                </mxCell>
                <mxCell id="arrow_reg_tracking4" value="" style="edgeStyle=elbowEdgeStyle;endArrow=classic;html=1;strokeColor=#7E57C2;" parent="stepsLane" source="templ_regression" target="step7" edge="1">
                    <mxGeometry relative="1" as="geometry"/>
                </mxCell>
            </root>
        </mxGraphModel>
    </diagram>
</mxfile>